<?xml version="1.0" standalone="no"?>
<!DOCTYPE svg PUBLIC "-//W3C//DTD SVG 20010904//EN"
 "http://www.w3.org/TR/2001/REC-SVG-20010904/DTD/svg10.dtd">
<svg version="1.0" xmlns="http://www.w3.org/2000/svg"
 width="522.000000pt" height="478.000000pt" viewBox="0 0 522.000000 478.000000"
 preserveAspectRatio="xMidYMid meet">

<g transform="translate(0.000000,478.000000) scale(0.100000,-0.100000)"
fill="#000000" stroke="none">
<path d="M537 4340 c-129 -41 -227 -141 -269 -273 -17 -56 -18 -127 -18 -1300
0 -1365 -3 -1297 62 -1404 42 -70 95 -117 178 -157 l65 -31 558 -3 557 -3 0
-299 0 -300 -165 0 c-181 0 -210 -6 -257 -56 -78 -84 -57 -219 42 -271 l43
-23 1225 0 c1224 0 1226 0 1269 21 56 27 93 87 93 153 0 54 -16 89 -57 128
-45 42 -73 48 -249 48 l-164 0 0 300 0 299 558 3 557 3 67 32 c88 41 160 113
201 201 l32 67 0 1280 c0 1003 -3 1289 -13 1322 -35 115 -149 226 -270 263
-63 20 -97 20 -2026 19 -1883 0 -1963 -1 -2019 -19z m3963 -350 c20 -20 20
-33 20 -1223 0 -1072 -2 -1205 -16 -1225 l-15 -22 -1929 0 -1929 0 -15 22
c-14 20 -16 153 -16 1225 0 1190 0 1203 20 1223 20 20 33 20 1940 20 1907 0
1920 0 1940 -20z m-1405 -3120 l0 -295 -532 -3 -533 -2 0 300 0 300 533 -2
532 -3 0 -295z"/>
<path d="M1775 3396 c-39 -18 -70 -52 -90 -98 -13 -32 -15 -107 -14 -535 0
-360 4 -507 13 -531 41 -114 184 -153 276 -76 68 57 65 34 65 609 0 581 3 555
-71 611 -43 33 -130 43 -179 20z"/>
<path d="M3210 2929 c-32 -13 -78 -56 -96 -91 -11 -21 -14 -86 -14 -308 0
-309 3 -325 59 -373 89 -74 220 -47 270 56 20 41 21 60 21 313 0 240 -2 273
-19 309 -22 48 -44 69 -94 90 -41 17 -90 19 -127 4z"/>
<path d="M2475 2677 c-22 -12 -50 -38 -62 -56 -22 -32 -23 -43 -23 -208 0
-191 4 -210 60 -257 98 -82 248 -33 279 90 14 54 14 277 1 326 -31 110 -156
161 -255 105z"/>
</g>
</svg>
